<svg width="283" height="97" viewBox="0 0 283 97" fill="none" xmlns="http://www.w3.org/2000/svg">
<g filter="url(#filter0_d_1_7)">
<rect x="6" y="2" width="271" height="85" rx="42.5" stroke="#126ABB" stroke-width="4"/>
<rect x="27" y="18" width="92" height="52" rx="26" fill="#126ABB"/>
<path d="M51.1136 53V35.5455H61.5795V37.4205H53.2273V43.3182H60.7955V45.1932H53.2273V53H51.1136ZM67.3132 35.5455V53H65.1996V35.5455H67.3132ZM71.5511 53V35.5455H73.6648V51.125H81.7784V53H71.5511ZM85.0511 53V35.5455H95.5852V37.4205H87.1648V43.3182H95.0398V45.1932H87.1648V51.125H95.7216V53H85.0511Z" fill="white"/>
<path d="M128.77 54V33.6364H142.491V37.1861H133.075V42.0384H141.786V45.5881H133.075V50.4503H142.531V54H128.77ZM149.951 33.6364L154.058 40.5767H154.217L158.343 33.6364H163.206L156.991 43.8182L163.345 54H158.393L154.217 47.0497H154.058L149.882 54H144.95L151.324 43.8182L145.069 33.6364H149.951ZM165.93 54V33.6364H173.964C175.509 33.6364 176.824 33.9313 177.912 34.5213C178.999 35.1046 179.827 35.9167 180.397 36.9574C180.974 37.9915 181.262 39.1847 181.262 40.5369C181.262 41.8892 180.971 43.0824 180.387 44.1165C179.804 45.1506 178.959 45.956 177.852 46.5327C176.752 47.1094 175.419 47.3977 173.855 47.3977H168.734V43.9474H173.159C173.987 43.9474 174.67 43.8049 175.207 43.5199C175.751 43.2282 176.155 42.8272 176.42 42.3168C176.692 41.7997 176.828 41.2064 176.828 40.5369C176.828 39.8608 176.692 39.2708 176.42 38.767C176.155 38.2566 175.751 37.8622 175.207 37.5838C174.663 37.2988 173.974 37.1562 173.139 37.1562H170.235V54H165.93ZM184.059 54V33.6364H192.093C193.631 33.6364 194.943 33.9115 196.031 34.4616C197.124 35.0052 197.956 35.7775 198.526 36.7784C199.103 37.7727 199.391 38.9427 199.391 40.2884C199.391 41.6406 199.1 42.804 198.516 43.7784C197.933 44.7462 197.088 45.4886 195.981 46.0057C194.88 46.5227 193.548 46.7812 191.984 46.7812H186.604V43.321H191.288C192.11 43.321 192.792 43.2083 193.336 42.983C193.879 42.7576 194.284 42.4195 194.549 41.9688C194.821 41.518 194.957 40.9579 194.957 40.2884C194.957 39.6122 194.821 39.0421 194.549 38.5781C194.284 38.1141 193.876 37.7628 193.326 37.5241C192.782 37.2789 192.096 37.1562 191.268 37.1562H188.364V54H184.059ZM195.056 44.733L200.117 54H195.364L190.413 44.733H195.056ZM202.434 54V33.6364H216.156V37.1861H206.739V42.0384H215.45V45.5881H206.739V50.4503H216.195V54H202.434ZM230.625 39.4929C230.546 38.6908 230.204 38.0677 229.601 37.6236C228.998 37.1794 228.179 36.9574 227.145 36.9574C226.443 36.9574 225.849 37.0568 225.365 37.2557C224.882 37.4479 224.51 37.7164 224.252 38.0611C224 38.4058 223.874 38.7969 223.874 39.2344C223.861 39.599 223.937 39.9171 224.103 40.1889C224.275 40.4607 224.51 40.696 224.809 40.8949C225.107 41.0871 225.452 41.2562 225.843 41.402C226.234 41.5412 226.651 41.6605 227.096 41.7599L228.925 42.1974C229.813 42.3963 230.629 42.6615 231.371 42.9929C232.114 43.3243 232.757 43.732 233.3 44.2159C233.844 44.6998 234.265 45.2699 234.563 45.9261C234.868 46.5824 235.024 47.3348 235.03 48.1832C235.024 49.4295 234.705 50.5099 234.076 51.4247C233.453 52.3329 232.551 53.0388 231.371 53.5426C230.198 54.0398 228.783 54.2884 227.125 54.2884C225.481 54.2884 224.05 54.0365 222.83 53.5327C221.617 53.0289 220.669 52.2831 219.986 51.2955C219.31 50.3011 218.955 49.0715 218.922 47.6065H223.088C223.135 48.2893 223.33 48.8594 223.675 49.3168C224.026 49.7675 224.494 50.1089 225.077 50.3409C225.667 50.5663 226.333 50.679 227.076 50.679C227.805 50.679 228.438 50.5729 228.975 50.3608C229.518 50.1487 229.939 49.8537 230.238 49.4759C230.536 49.098 230.685 48.6638 230.685 48.1733C230.685 47.7159 230.549 47.3314 230.277 47.0199C230.012 46.7083 229.621 46.4432 229.104 46.2244C228.594 46.0057 227.967 45.8068 227.225 45.6278L225.007 45.071C223.291 44.6534 221.935 44.0005 220.941 43.1122C219.946 42.224 219.453 41.0275 219.459 39.5227C219.453 38.2898 219.781 37.2126 220.444 36.2912C221.113 35.3698 222.031 34.6506 223.198 34.1335C224.364 33.6165 225.69 33.358 227.175 33.358C228.686 33.358 230.006 33.6165 231.132 34.1335C232.266 34.6506 233.148 35.3698 233.777 36.2912C234.407 37.2126 234.732 38.2798 234.752 39.4929H230.625ZM248.973 39.4929C248.893 38.6908 248.552 38.0677 247.949 37.6236C247.346 37.1794 246.527 36.9574 245.493 36.9574C244.79 36.9574 244.197 37.0568 243.713 37.2557C243.229 37.4479 242.858 37.7164 242.599 38.0611C242.348 38.4058 242.222 38.7969 242.222 39.2344C242.208 39.599 242.285 39.9171 242.45 40.1889C242.623 40.4607 242.858 40.696 243.156 40.8949C243.455 41.0871 243.799 41.2562 244.19 41.402C244.581 41.5412 244.999 41.6605 245.443 41.7599L247.273 42.1974C248.161 42.3963 248.976 42.6615 249.719 42.9929C250.461 43.3243 251.104 43.732 251.648 44.2159C252.191 44.6998 252.612 45.2699 252.911 45.9261C253.215 46.5824 253.371 47.3348 253.378 48.1832C253.371 49.4295 253.053 50.5099 252.423 51.4247C251.8 52.3329 250.899 53.0388 249.719 53.5426C248.545 54.0398 247.13 54.2884 245.473 54.2884C243.829 54.2884 242.397 54.0365 241.178 53.5327C239.964 53.0289 239.017 52.2831 238.334 51.2955C237.658 50.3011 237.303 49.0715 237.27 47.6065H241.436C241.482 48.2893 241.678 48.8594 242.023 49.3168C242.374 49.7675 242.841 50.1089 243.425 50.3409C244.015 50.5663 244.681 50.679 245.423 50.679C246.152 50.679 246.786 50.5729 247.322 50.3608C247.866 50.1487 248.287 49.8537 248.585 49.4759C248.884 49.098 249.033 48.6638 249.033 48.1733C249.033 47.7159 248.897 47.3314 248.625 47.0199C248.36 46.7083 247.969 46.4432 247.452 46.2244C246.941 46.0057 246.315 45.8068 245.572 45.6278L243.355 45.071C241.638 44.6534 240.283 44.0005 239.288 43.1122C238.294 42.224 237.8 41.0275 237.807 39.5227C237.8 38.2898 238.128 37.2126 238.791 36.2912C239.461 35.3698 240.379 34.6506 241.545 34.1335C242.712 33.6165 244.038 33.358 245.523 33.358C247.034 33.358 248.353 33.6165 249.48 34.1335C250.614 34.6506 251.495 35.3698 252.125 36.2912C252.755 37.2126 253.08 38.2798 253.099 39.4929H248.973Z" fill="white"/>
</g>
<defs>
<filter id="filter0_d_1_7" x="0" y="0" width="283" height="97" filterUnits="userSpaceOnUse" color-interpolation-filters="sRGB">
<feFlood flood-opacity="0" result="BackgroundImageFix"/>
<feColorMatrix in="SourceAlpha" type="matrix" values="0 0 0 0 0 0 0 0 0 0 0 0 0 0 0 0 0 0 127 0" result="hardAlpha"/>
<feOffset dy="4"/>
<feGaussianBlur stdDeviation="2"/>
<feComposite in2="hardAlpha" operator="out"/>
<feColorMatrix type="matrix" values="0 0 0 0 0 0 0 0 0 0 0 0 0 0 0 0 0 0 0.25 0"/>
<feBlend mode="normal" in2="BackgroundImageFix" result="effect1_dropShadow_1_7"/>
<feBlend mode="normal" in="SourceGraphic" in2="effect1_dropShadow_1_7" result="shape"/>
</filter>
</defs>
</svg>
